<svg width="1400" height="900" viewBox="0 0 1400 900" fill="none" xmlns="http://www.w3.org/2000/svg">
  <defs>
    <linearGradient id="bg" x1="180" y1="120" x2="1220" y2="780" gradientUnits="userSpaceOnUse">
      <stop offset="0" stop-color="#111426"/>
      <stop offset="1" stop-color="#07080F"/>
    </linearGradient>
    <linearGradient id="cardGlow" x1="0" y1="0" x2="1" y2="0">
      <stop offset="0" stop-color="#FF4D6D"/>
      <stop offset="1" stop-color="#FF9F1C"/>
    </linearGradient>
    <linearGradient id="chartGlow" x1="0" y1="0" x2="1" y2="0">
      <stop offset="0" stop-color="#7C3AED"/>
      <stop offset="1" stop-color="#00D4FF"/>
    </linearGradient>
    <filter id="shadow" x="-20%" y="-20%" width="140%" height="140%">
      <feDropShadow dx="0" dy="24" stdDeviation="30" flood-color="#000000" flood-opacity="0.45"/>
    </filter>
    <clipPath id="chartClip">
      <rect x="420" y="254" width="760" height="250" rx="16"/>
    </clipPath>
  </defs>

  <rect width="1400" height="900" fill="#05060C"/>
  <rect x="90" y="70" width="1220" height="760" rx="34" fill="url(#bg)" stroke="#1B1E30" stroke-width="2" filter="url(#shadow)"/>
  <rect x="90" y="70" width="1220" height="54" rx="34" fill="#0A0D18"/>
  <circle cx="128" cy="97" r="8" fill="#FF5F57"/>
  <circle cx="154" cy="97" r="8" fill="#FEBB2E"/>
  <circle cx="180" cy="97" r="8" fill="#28C840"/>
  <text x="700" y="103" text-anchor="middle" fill="#6E749D" font-family="Arial, Helvetica, sans-serif" font-size="16" letter-spacing="4">WHOOP LIVE</text>

  <text x="700" y="172" text-anchor="middle" fill="#6E749D" font-family="Arial, Helvetica, sans-serif" font-size="16" letter-spacing="8">WHOOP LIVE</text>

  <g transform="translate(570 196)">
    <rect x="0" y="0" width="260" height="38" rx="19" fill="#0E0F1A" stroke="#181929"/>
    <circle cx="28" cy="19" r="6" fill="#3DF598"/>
    <text x="46" y="24" fill="#E0E3FF" font-family="Arial, Helvetica, sans-serif" font-size="15">WHOOP 5.0 - LIVE</text>
  </g>

  <g transform="translate(130 250)">
    <rect width="210" height="250" rx="24" fill="#0E0F1A" stroke="#181929"/>
    <rect width="210" height="3" rx="2" fill="url(#cardGlow)"/>
    <text x="105" y="118" text-anchor="middle" fill="#FF6B85" font-family="Arial, Helvetica, sans-serif" font-size="88" font-weight="300">132</text>
    <text x="105" y="148" text-anchor="middle" fill="#6E749D" font-family="Arial, Helvetica, sans-serif" font-size="12" letter-spacing="4">HEART RATE</text>
    <text x="105" y="168" text-anchor="middle" fill="#6E749D" font-family="Arial, Helvetica, sans-serif" font-size="14">bpm</text>
    <rect x="37" y="196" width="24" height="4" rx="2" fill="#3DF598"/>
    <rect x="66" y="196" width="24" height="4" rx="2" fill="#00D4FF"/>
    <rect x="95" y="196" width="24" height="4" rx="2" fill="#FFE066"/>
    <rect x="124" y="196" width="24" height="4" rx="2" fill="#FF9F1C"/>
    <rect x="153" y="196" width="24" height="4" rx="2" fill="#181929"/>
  </g>

  <g transform="translate(360 250)">
    <rect width="390" height="118" rx="18" fill="#0E0F1A" stroke="#181929"/>
    <text x="28" y="55" fill="#00D4FF" font-family="Arial, Helvetica, sans-serif" font-size="44" font-weight="300">84</text>
    <text x="28" y="78" fill="#6E749D" font-family="Arial, Helvetica, sans-serif" font-size="12" letter-spacing="3">MIN</text>

    <rect x="206" y="0" width="184" height="118" rx="18" fill="#0E0F1A" stroke="#181929"/>
    <text x="234" y="55" fill="#00D4FF" font-family="Arial, Helvetica, sans-serif" font-size="44" font-weight="300">148</text>
    <text x="234" y="78" fill="#6E749D" font-family="Arial, Helvetica, sans-serif" font-size="12" letter-spacing="3">MAX</text>

    <rect x="0" y="132" width="184" height="118" rx="18" fill="#0E0F1A" stroke="#181929"/>
    <text x="28" y="187" fill="#00D4FF" font-family="Arial, Helvetica, sans-serif" font-size="44" font-weight="300">121</text>
    <text x="28" y="210" fill="#6E749D" font-family="Arial, Helvetica, sans-serif" font-size="12" letter-spacing="3">AVERAGE</text>

    <rect x="206" y="132" width="184" height="118" rx="18" fill="#0E0F1A" stroke="#181929"/>
    <text x="234" y="187" fill="#00D4FF" font-family="Arial, Helvetica, sans-serif" font-size="44" font-weight="300">18:42</text>
    <text x="234" y="210" fill="#6E749D" font-family="Arial, Helvetica, sans-serif" font-size="12" letter-spacing="3">SESSION</text>
  </g>

  <g transform="translate(130 530)">
    <rect width="1140" height="240" rx="24" fill="#0E0F1A" stroke="#181929"/>
    <rect width="1140" height="3" rx="2" fill="url(#chartGlow)"/>
    <text x="28" y="34" fill="#6E749D" font-family="Arial, Helvetica, sans-serif" font-size="12" letter-spacing="4">HEART RATE HISTORY</text>

    <g transform="translate(836 18)">
      <rect x="0" y="0" width="58" height="28" rx="8" fill="transparent" stroke="#181929"/>
      <text x="29" y="18" text-anchor="middle" fill="#6E749D" font-family="Arial, Helvetica, sans-serif" font-size="12">2 min</text>
      <rect x="65" y="0" width="58" height="28" rx="8" fill="#00D4FF" fill-opacity="0.08" stroke="#00D4FF" stroke-opacity="0.35"/>
      <text x="94" y="18" text-anchor="middle" fill="#00D4FF" font-family="Arial, Helvetica, sans-serif" font-size="12">5 min</text>
      <rect x="130" y="0" width="58" height="28" rx="8" fill="transparent" stroke="#181929"/>
      <text x="159" y="18" text-anchor="middle" fill="#6E749D" font-family="Arial, Helvetica, sans-serif" font-size="12">15 min</text>
      <rect x="195" y="0" width="58" height="28" rx="8" fill="transparent" stroke="#181929"/>
      <text x="224" y="18" text-anchor="middle" fill="#6E749D" font-family="Arial, Helvetica, sans-serif" font-size="12">1 hr</text>
      <rect x="260" y="0" width="44" height="28" rx="8" fill="transparent" stroke="#181929"/>
      <text x="282" y="18" text-anchor="middle" fill="#6E749D" font-family="Arial, Helvetica, sans-serif" font-size="12">All</text>
    </g>

    <g clip-path="url(#chartClip)">
      <rect x="290" y="60" width="760" height="140" fill="#FF4D6D" fill-opacity="0.05"/>
      <rect x="460" y="60" width="140" height="140" fill="#3DF598" fill-opacity="0.12"/>
      <rect x="604" y="60" width="100" height="140" fill="#00D4FF" fill-opacity="0.12"/>
      <rect x="760" y="60" width="150" height="140" fill="#FF9F1C" fill-opacity="0.12"/>
      <rect x="462" y="60" width="3" height="140" fill="#3DF598" fill-opacity="0.7"/>
      <rect x="606" y="60" width="3" height="140" fill="#00D4FF" fill-opacity="0.7"/>
      <rect x="762" y="60" width="3" height="140" fill="#FF9F1C" fill-opacity="0.7"/>
      <path d="M290 168C330 158 355 136 390 140C430 145 445 198 485 190C525 182 535 112 580 114C615 116 630 165 665 170C700 175 714 98 760 96C818 93 832 160 872 156C920 150 962 76 1008 84C1040 90 1036 140 1050 152V200H290V168Z" fill="#FF4D6D" fill-opacity="0.14"/>
      <path d="M290 168C330 158 355 136 390 140C430 145 445 198 485 190C525 182 535 112 580 114C615 116 630 165 665 170C700 175 714 98 760 96C818 93 832 160 872 156C920 150 962 76 1008 84C1040 90 1036 140 1050 152" stroke="#FF6B85" stroke-width="4" stroke-linecap="round" stroke-linejoin="round"/>
      <rect x="781" y="68" width="90" height="24" rx="8" fill="#07080F" fill-opacity="0.92" stroke="#FF9F1C" stroke-opacity="0.55"/>
      <text x="826" y="84" text-anchor="middle" fill="#FFB162" font-family="Arial, Helvetica, sans-serif" font-size="12" font-weight="700">Deep Work</text>
    </g>

    <line x1="290" y1="200" x2="1050" y2="200" stroke="#FFFFFF" stroke-opacity="0.08"/>
    <line x1="290" y1="160" x2="1050" y2="160" stroke="#FFFFFF" stroke-opacity="0.05"/>
    <line x1="290" y1="120" x2="1050" y2="120" stroke="#FFFFFF" stroke-opacity="0.05"/>
    <line x1="290" y1="80" x2="1050" y2="80" stroke="#FFFFFF" stroke-opacity="0.05"/>

    <text x="1065" y="204" fill="#6E749D" font-family="Arial, Helvetica, sans-serif" font-size="11">09:10</text>
    <text x="921" y="204" fill="#6E749D" font-family="Arial, Helvetica, sans-serif" font-size="11">09:09</text>
    <text x="777" y="204" fill="#6E749D" font-family="Arial, Helvetica, sans-serif" font-size="11">09:08</text>
    <text x="633" y="204" fill="#6E749D" font-family="Arial, Helvetica, sans-serif" font-size="11">09:07</text>
    <text x="489" y="204" fill="#6E749D" font-family="Arial, Helvetica, sans-serif" font-size="11">09:06</text>
    <text x="345" y="204" fill="#6E749D" font-family="Arial, Helvetica, sans-serif" font-size="11">09:05</text>

    <g transform="translate(24 180)">
      <rect x="0" y="0" width="700" height="36" rx="10" fill="#07080F" stroke="#181929"/>
      <text x="16" y="23" fill="#6E749D" font-family="Arial, Helvetica, sans-serif" font-size="13">Name your activity: meeting, vibe coding, reading...</text>
      <rect x="716" y="0" width="92" height="36" rx="10" fill="#3DF598" fill-opacity="0.12" stroke="#3DF598" stroke-opacity="0.35"/>
      <text x="762" y="23" text-anchor="middle" fill="#3DF598" font-family="Arial, Helvetica, sans-serif" font-size="13" font-weight="700">Start</text>
      <rect x="820" y="0" width="148" height="36" rx="10" fill="#FF4D6D" fill-opacity="0.08" stroke="#FF4D6D" stroke-opacity="0.28"/>
      <circle cx="840" cy="18" r="4" fill="#FF4D6D"/>
      <text x="854" y="23" fill="#FF8FA3" font-family="Arial, Helvetica, sans-serif" font-size="13">Deep Work  12:14</text>
    </g>
  </g>

  <text x="134" y="804" fill="#6E749D" font-family="Arial, Helvetica, sans-serif" font-size="12" letter-spacing="4">ACTIVITY LOG</text>

  <g transform="translate(130 820)">
    <rect width="560" height="0" rx="0" fill="none"/>
  </g>

  <g transform="translate(130 822)">
    <rect x="0" y="-6" width="560" height="74" rx="18" fill="#3DF598" fill-opacity="0.08" stroke="#3DF598" stroke-opacity="0.35"/>
    <rect x="0" y="-6" width="4" height="74" rx="2" fill="#3DF598"/>
    <text x="20" y="24" fill="#8DFBC4" font-family="Arial, Helvetica, sans-serif" font-size="18" font-weight="700">Meeting</text>
    <text x="20" y="46" fill="#6E749D" font-family="Arial, Helvetica, sans-serif" font-size="12">08:47 → 09:01 · 14:09</text>
    <text x="378" y="23" fill="#8DFBC4" font-family="Arial, Helvetica, sans-serif" font-size="24" font-weight="300">118</text>
    <text x="378" y="42" fill="#6E749D" font-family="Arial, Helvetica, sans-serif" font-size="10" letter-spacing="2">AVG BPM</text>
    <text x="454" y="23" fill="#8DFBC4" font-family="Arial, Helvetica, sans-serif" font-size="24" font-weight="300">96</text>
    <text x="454" y="42" fill="#6E749D" font-family="Arial, Helvetica, sans-serif" font-size="10" letter-spacing="2">MIN</text>
    <text x="512" y="23" fill="#8DFBC4" font-family="Arial, Helvetica, sans-serif" font-size="24" font-weight="300">133</text>
    <text x="512" y="42" fill="#6E749D" font-family="Arial, Helvetica, sans-serif" font-size="10" letter-spacing="2">PEAK</text>
  </g>

  <g transform="translate(710 822)">
    <rect x="0" y="-6" width="560" height="74" rx="18" fill="#00D4FF" fill-opacity="0.08" stroke="#00D4FF" stroke-opacity="0.35"/>
    <rect x="0" y="-6" width="4" height="74" rx="2" fill="#00D4FF"/>
    <text x="20" y="24" fill="#7DEAFF" font-family="Arial, Helvetica, sans-serif" font-size="18" font-weight="700">Deep Work</text>
    <text x="20" y="46" fill="#6E749D" font-family="Arial, Helvetica, sans-serif" font-size="12">09:03 → now · ongoing</text>
    <text x="394" y="23" fill="#7DEAFF" font-family="Arial, Helvetica, sans-serif" font-size="24" font-weight="300">live</text>
    <text x="394" y="42" fill="#6E749D" font-family="Arial, Helvetica, sans-serif" font-size="10" letter-spacing="2">AVG</text>
    <text x="470" y="23" fill="#7DEAFF" font-family="Arial, Helvetica, sans-serif" font-size="24" font-weight="300">108</text>
    <text x="470" y="42" fill="#6E749D" font-family="Arial, Helvetica, sans-serif" font-size="10" letter-spacing="2">MIN</text>
    <text x="528" y="23" fill="#7DEAFF" font-family="Arial, Helvetica, sans-serif" font-size="24" font-weight="300">141</text>
    <text x="528" y="42" fill="#6E749D" font-family="Arial, Helvetica, sans-serif" font-size="10" letter-spacing="2">PEAK</text>
  </g>
</svg>
